<svg width="197" height="27" fill="none" xmlns="http://www.w3.org/2000/svg"><path d="M48.604 4.195a.317.317 0 0 1-.23.08h-7.267c-.07 0-.106.033-.106.1v4.267c0 .067.035.1.106.1h4.949c.096 0 .173.028.228.08a.29.29 0 0 1 .083.22v1.063a.284.284 0 0 1-.083.22.308.308 0 0 1-.228.08h-4.95c-.069 0-.105.033-.105.1v5.83a.282.282 0 0 1-.083.22.306.306 0 0 1-.229.08H39.31a.324.324 0 0 1-.23-.08.297.297 0 0 1-.083-.22V2.911c0-.093.027-.167.082-.22a.317.317 0 0 1 .231-.08h9.063c.098 0 .174.026.231.08a.301.301 0 0 1 .083.22v1.061a.291.291 0 0 1-.083.223Zm7.873 2.364c.152.08.21.207.167.381l-.293 1.303c-.015.134-.083.2-.21.2a.537.537 0 0 1-.166-.02c-.23-.07-.47-.104-.71-.1a1.842 1.842 0 0 0-.314.02c-.654.027-1.194.244-1.619.652-.424.408-.636.939-.636 1.593v5.75a.282.282 0 0 1-.083.22.31.31 0 0 1-.23.08h-1.379a.316.316 0 0 1-.228-.08c-.058-.052-.084-.126-.084-.22V6.74c0-.093.026-.166.084-.219a.307.307 0 0 1 .228-.08h1.38c.096 0 .172.026.229.08a.286.286 0 0 1 .083.22v.922c0 .054.01.084.032.09.02.007.044-.01.072-.05.627-.909 1.475-1.362 2.548-1.362.419 0 .795.072 1.13.219Zm3.978 9.488c-.76-.502-1.292-1.2-1.598-2.095-.251-.72-.376-1.535-.376-2.444 0-.948.117-1.75.355-2.405a3.957 3.957 0 0 1 1.607-2.073c.767-.501 1.678-.75 2.737-.75 1.003 0 1.876.249 2.622.75a4.138 4.138 0 0 1 1.596 2.053c.25.681.376 1.483.376 2.405 0 .934-.125 1.756-.376 2.463-.305.896-.835 1.595-1.586 2.095-.752.5-1.637.75-2.652.75-1.045.001-1.947-.248-2.705-.75Zm4.166-1.363c.417-.3.717-.725.898-1.274.153-.507.23-1.135.23-1.882 0-.747-.07-1.37-.21-1.864-.18-.548-.48-.971-.898-1.272-.418-.302-.927-.452-1.524-.452-.572 0-1.064.151-1.482.452-.417.3-.718.724-.9 1.272-.152.468-.228 1.088-.228 1.864 0 .774.076 1.403.229 1.882.167.549.464.972.888 1.274.424.301.937.45 1.534.45.526.01 1.041-.148 1.463-.45ZM78.362 7.25c.669.635 1.003 1.493 1.003 2.575v6.511a.286.286 0 0 1-.083.22.313.313 0 0 1-.23.08h-1.379a.315.315 0 0 1-.23-.08.29.29 0 0 1-.083-.22v-6.13c0-.667-.202-1.208-.605-1.623-.403-.414-.94-.621-1.609-.621-.598 0-1.103.17-1.514.512-.41.34-.652.798-.72 1.372v6.492a.286.286 0 0 1-.084.22.313.313 0 0 1-.23.08h-1.38a.317.317 0 0 1-.228-.08.292.292 0 0 1-.083-.22V6.74c0-.093.027-.166.083-.219a.308.308 0 0 1 .229-.08h1.379c.097 0 .174.026.23.08a.297.297 0 0 1 .084.22v.56c0 .04.013.068.041.08.026.015.049.008.062-.02.586-.707 1.463-1.06 2.632-1.06 1.142 0 2.048.316 2.715.95Zm9.544.691a.312.312 0 0 1-.23.08h-2.13c-.07 0-.104.034-.104.1v5.23c0 .574.127.982.386 1.222.258.241.672.361 1.243.361h.5c.099 0 .175.027.23.08a.3.3 0 0 1 .084.22v1.043c0 .188-.105.293-.313.32l-.857.021c-1.072 0-1.873-.18-2.401-.541-.53-.36-.794-1.035-.794-2.024V8.122c0-.067-.034-.1-.105-.1h-1.149a.32.32 0 0 1-.23-.08.292.292 0 0 1-.083-.221v-.982c0-.093.027-.166.084-.219a.31.31 0 0 1 .23-.08h1.148c.07 0 .105-.033.105-.1V4.095c0-.094.027-.166.084-.22a.307.307 0 0 1 .228-.08h1.295a.32.32 0 0 1 .23.08.293.293 0 0 1 .084.22V6.34c0 .067.034.1.103.1h2.131c.097 0 .174.026.23.08a.286.286 0 0 1 .083.22v.981a.278.278 0 0 1-.082.22Zm9.712 5.951c.07-.12.146-.18.23-.18.07 0 .131.02.186.06l.858.501c.111.067.167.155.167.26l-.042.16a4.001 4.001 0 0 1-1.599 1.544c-.687.375-1.492.561-2.412.561-.988 0-1.824-.21-2.507-.63-.681-.422-1.197-1.025-1.544-1.815-.35-.814-.523-1.77-.523-2.864 0-.975.077-1.716.23-2.225.25-.922.75-1.649 1.503-2.183.752-.534 1.665-.8 2.736-.8 1.323 0 2.332.33 3.029.99.695.662 1.148 1.62 1.356 2.876.07.494.118 1.096.147 1.803 0 .201-.105.3-.314.3h-6.597c-.07 0-.106.033-.106.1.028.508.076.87.147 1.082.152.535.46.956.919 1.262.46.308 1.029.462 1.712.462 1.128-.014 1.936-.436 2.424-1.264Zm-4.208-5.53c-.384.281-.644.669-.784 1.163-.11.365-.172.742-.187 1.122 0 .067.034.1.104.1h4.741c.07 0 .105-.033.105-.1-.028-.441-.07-.768-.125-.982a2.267 2.267 0 0 0-.824-1.252c-.41-.314-.923-.472-1.535-.472-.613 0-1.114.14-1.495.421Zm16.527-1.112c.669.635 1.004 1.493 1.004 2.575v6.511a.3.3 0 0 1-.018.119.3.3 0 0 1-.066.101.305.305 0 0 1-.228.08h-1.379a.323.323 0 0 1-.23-.08.282.282 0 0 1-.083-.22v-6.13c0-.667-.203-1.208-.606-1.623-.404-.414-.94-.621-1.609-.621-.598 0-1.102.17-1.514.512-.412.341-.65.798-.721 1.372v6.492a.288.288 0 0 1-.084.22.304.304 0 0 1-.228.08h-1.379a.323.323 0 0 1-.23-.08.285.285 0 0 1-.083-.22V6.74c0-.093.027-.166.083-.219a.317.317 0 0 1 .23-.08h1.379a.31.31 0 0 1 .228.08.284.284 0 0 1 .084.22v.56c0 .04.014.068.041.08.029.015.049.008.065-.02.585-.707 1.462-1.06 2.63-1.06 1.143 0 2.047.316 2.714.95Zm10.946-4.558a.319.319 0 0 1 .228-.08h1.379a.333.333 0 0 1 .23.08.291.291 0 0 1 .083.22v13.425a.282.282 0 0 1-.083.22.318.318 0 0 1-.23.08h-1.379a.305.305 0 0 1-.228-.08c-.058-.052-.083-.126-.083-.22v-.52c0-.04-.016-.067-.042-.08-.028-.013-.058-.007-.083.02a3.2 3.2 0 0 1-1.077.772c-.409.18-.86.27-1.346.27-1.003 0-1.835-.237-2.496-.71-.662-.474-1.146-1.146-1.451-2.014-.251-.668-.376-1.522-.376-2.564 0-.976.104-1.783.312-2.425.293-.881.776-1.57 1.451-2.064.676-.493 1.528-.74 2.559-.74.487 0 .936.086 1.346.26.41.172.769.427 1.076.76.026.027.056.037.084.03.026-.006.041-.03.041-.07V2.915c.002-.095.027-.17.085-.223Zm-.106 8.836c0-1.096-.18-1.95-.543-2.565-.403-.682-.995-1.022-1.774-1.022-.808 0-1.427.321-1.858.963-.446.668-.669 1.55-.669 2.645 0 1.028.175 1.856.522 2.484.403.735 1.072 1.102 2.005 1.102.794 0 1.398-.36 1.816-1.082.334-.589.501-1.43.501-2.525Zm10.547 5.03a.282.282 0 0 1-.083-.22V2.912c0-.093.027-.167.083-.22a.319.319 0 0 1 .228-.08h1.401c.166 0 .292.067.376.2l3.507 5.37c.042.08.084.08.125 0l3.531-5.37a.403.403 0 0 1 .158-.15.427.427 0 0 1 .218-.05h1.398a.325.325 0 0 1 .229.08.288.288 0 0 1 .084.22v13.424a.287.287 0 0 1-.084.22.317.317 0 0 1-.229.08h-1.379a.315.315 0 0 1-.229-.08c-.057-.052-.083-.126-.083-.22V6.16c0-.054-.016-.083-.042-.09-.028-.007-.057.01-.083.05l-2.84 4.448a.42.42 0 0 1-.376.2h-.669a.42.42 0 0 1-.376-.2l-2.819-4.448c-.028-.04-.057-.057-.083-.05-.028.007-.042.036-.042.09v10.178a.286.286 0 0 1-.083.22.314.314 0 0 1-.231.08h-1.379a.319.319 0 0 1-.228-.08Zm21.844-2.666c.07-.12.148-.18.231-.18.068 0 .133.02.187.06l.857.501c.111.067.166.155.166.26l-.041.16a4.01 4.01 0 0 1-1.598 1.544c-.689.375-1.493.561-2.412.561-.99 0-1.825-.21-2.507-.63-.682-.422-1.198-1.025-1.546-1.815-.348-.814-.521-1.77-.521-2.864 0-.975.075-1.716.229-2.225.251-.922.751-1.649 1.503-2.183.752-.534 1.665-.8 2.736-.8 1.324 0 2.332.33 3.029.99.695.662 1.148 1.62 1.357 2.876.078.598.127 1.2.146 1.803 0 .201-.105.3-.313.3h-6.599c-.07 0-.105.033-.105.1.029.508.077.87.147 1.082a2.2 2.2 0 0 0 .918 1.262c.46.308 1.03.462 1.713.462 1.128-.014 1.936-.436 2.423-1.264Zm-4.209-5.53c-.382.281-.644.669-.782 1.163-.11.365-.173.742-.188 1.122 0 .067.034.1.105.1h4.74c.07 0 .106-.033.106-.1-.028-.441-.07-.768-.125-.982a2.279 2.279 0 0 0-.825-1.252c-.41-.314-.922-.472-1.536-.472-.613 0-1.112.14-1.495.421Zm16.53-1.112c.669.635 1.003 1.493 1.003 2.575v6.511a.284.284 0 0 1-.083.22.315.315 0 0 1-.229.08h-1.379a.315.315 0 0 1-.229-.08.3.3 0 0 1-.066-.101.3.3 0 0 1-.018-.119v-6.13c0-.667-.202-1.208-.605-1.623-.404-.414-.94-.621-1.609-.621-.599 0-1.102.17-1.514.512-.412.341-.651.798-.721 1.372v6.492a.299.299 0 0 1-.018.119.302.302 0 0 1-.066.102.304.304 0 0 1-.228.08h-1.379a.323.323 0 0 1-.23-.08.285.285 0 0 1-.083-.22v-9.6c0-.093.027-.166.083-.219a.317.317 0 0 1 .23-.08h1.379a.31.31 0 0 1 .228.08.284.284 0 0 1 .084.22v.56c0 .04.014.068.041.08.028.015.049.008.064-.02.586-.707 1.463-1.06 2.631-1.06 1.142 0 2.047.316 2.714.95Zm9.544.691a.308.308 0 0 1-.23.08h-2.129c-.07 0-.106.034-.106.1v5.23c0 .574.129.982.387 1.222.258.241.671.361 1.243.361h.501a.325.325 0 0 1 .229.08.288.288 0 0 1 .084.22v1.043c0 .188-.105.293-.313.32l-.857.021c-1.072 0-1.872-.18-2.402-.541-.529-.36-.794-1.035-.794-2.024V8.122c0-.067-.034-.1-.103-.1h-1.15a.314.314 0 0 1-.229-.08.287.287 0 0 1-.084-.221v-.982c0-.093.027-.166.084-.219a.314.314 0 0 1 .229-.08h1.15c.069 0 .103-.033.103-.1V4.095c0-.094.028-.166.083-.22a.323.323 0 0 1 .231-.08h1.295a.31.31 0 0 1 .228.08.286.286 0 0 1 .084.22V6.34c0 .067.035.1.105.1h2.13c.098 0 .175.026.23.08a.285.285 0 0 1 .083.22v.981a.284.284 0 0 1-.082.22Zm4.479 8.106c-.758-.502-1.29-1.2-1.596-2.095-.251-.72-.376-1.535-.376-2.444 0-.948.117-1.75.353-2.405a3.961 3.961 0 0 1 1.609-2.073c.767-.501 1.677-.75 2.737-.75 1.003 0 1.875.249 2.62.75a4.132 4.132 0 0 1 1.598 2.053c.251.681.376 1.483.376 2.405 0 .934-.125 1.756-.376 2.463-.306.896-.835 1.595-1.586 2.095-.752.5-1.637.75-2.654.75-1.044.001-1.946-.248-2.705-.75Zm4.167-1.363c.417-.3.717-.725.899-1.274.152-.507.229-1.135.229-1.882 0-.747-.07-1.37-.21-1.864-.18-.548-.479-.971-.897-1.272-.418-.302-.927-.452-1.525-.452-.571 0-1.064.151-1.482.452-.418.3-.717.724-.898 1.272-.153.468-.23 1.088-.23 1.864 0 .774.077 1.403.23 1.882.166.549.462.972.887 1.274.424.301.936.45 1.534.45a2.435 2.435 0 0 0 1.463-.45Zm12.072-8.125c.153.08.209.207.166.381l-.292 1.303c-.015.134-.084.2-.21.2a.534.534 0 0 1-.166-.02c-.23-.07-.47-.104-.711-.1-.139 0-.243.007-.313.02-.655.027-1.194.244-1.618.652-.425.408-.638.939-.638 1.593v5.75a.281.281 0 0 1-.083.22.304.304 0 0 1-.228.08h-1.379a.323.323 0 0 1-.23-.08.281.281 0 0 1-.083-.22V6.74c0-.093.027-.166.083-.219a.308.308 0 0 1 .23-.08h1.379c.096 0 .173.026.228.08a.287.287 0 0 1 .083.22v.922c0 .054.012.084.032.09.02.007.045-.01.073-.05.627-.909 1.476-1.362 2.548-1.362.418 0 .794.072 1.129.219Z" fill="#1C2122"/><path d="M27.877 13.14a.883.883 0 0 1-.345-.07l-7.248-3.113a.837.837 0 0 1-.363-.3.787.787 0 0 1 0-.88.837.837 0 0 1 .363-.3l7.248-3.103a.88.88 0 0 1 .646-.016c.209.077.378.23.47.425.09.197.096.42.016.62s-.24.363-.444.45l-5.522 2.365 5.523 2.373a.83.83 0 0 1 .408.372.781.781 0 0 1 .074.536.805.805 0 0 1-.295.46.867.867 0 0 1-.53.181Z" fill="#67BECE"/><path d="M18 24.436c-7.967 0-14.933-5.16-16.936-12.55a.781.781 0 0 1 .089-.613.841.841 0 0 1 .515-.374.875.875 0 0 1 .64.085.814.814 0 0 1 .39.494c.883 3.248 2.864 6.123 5.634 8.175 2.769 2.052 6.17 3.164 9.668 3.163.224 0 .439.085.597.237a.794.794 0 0 1 .248.573c0 .215-.09.42-.248.573a.863.863 0 0 1-.597.237Z" fill="#3F54A3"/><path d="M15.091 17.71a.863.863 0 0 1-.596-.237.794.794 0 0 1-.248-.573V1.502c0-.215.09-.42.248-.572a.863.863 0 0 1 .597-.238c.223 0 .438.086.596.238a.793.793 0 0 1 .248.572V16.9c0 .215-.09.42-.248.573a.863.863 0 0 1-.597.237Z" fill="#67BECE"/><path d="M46.956 26.782a.869.869 0 0 1-.597-.238l-3.684-3.536-3.684 3.535a.85.85 0 0 1-.598.238.876.876 0 0 1-.597-.238.808.808 0 0 1-.247-.573.782.782 0 0 1 .247-.573l4.282-4.108a.845.845 0 0 1 .597-.237.875.875 0 0 1 .597.237l4.282 4.11a.78.78 0 0 1 .184.884.819.819 0 0 1-.312.363.87.87 0 0 1-.47.136Z" fill="#F9C7C5"/><path d="M55.518 26.782a.871.871 0 0 1-.596-.238l-3.685-3.536-3.683 3.535a.848.848 0 0 1-.597.238.875.875 0 0 1-.598-.238.808.808 0 0 1-.247-.573.78.78 0 0 1 .247-.573l4.282-4.108a.89.89 0 0 1 .597-.228.89.89 0 0 1 .597.228l4.282 4.11a.78.78 0 0 1 .183.884.818.818 0 0 1-.311.363.87.87 0 0 1-.47.136Z" fill="#F9C7C5"/><path d="M64.083 26.782a.87.87 0 0 1-.598-.238L59.8 23.008l-3.684 3.535a.846.846 0 0 1-.597.238.875.875 0 0 1-.597-.238.807.807 0 0 1-.248-.573.78.78 0 0 1 .248-.573l4.282-4.108a.863.863 0 0 1 .596-.237c.224 0 .439.085.597.237l4.281 4.11a.78.78 0 0 1 .184.883.818.818 0 0 1-.311.363.87.87 0 0 1-.47.137Z" fill="#F9C7C5"/><path d="M72.644 26.782a.87.87 0 0 1-.596-.238l-3.684-3.536-3.685 3.535a.847.847 0 0 1-.597.238.876.876 0 0 1-.597-.238.808.808 0 0 1-.248-.573.78.78 0 0 1 .248-.573l4.28-4.108a.89.89 0 0 1 .598-.228.89.89 0 0 1 .597.228l4.284 4.11a.8.8 0 0 1 .231.415.779.779 0 0 1-.048.469.818.818 0 0 1-.313.364.87.87 0 0 1-.47.135Z" fill="#F9C7C5"/><path d="M81.208 26.782a.871.871 0 0 1-.596-.238l-3.686-3.536-3.682 3.535a.847.847 0 0 1-.597.238.876.876 0 0 1-.598-.238.783.783 0 0 1 0-1.146l4.281-4.108a.89.89 0 0 1 .598-.228.89.89 0 0 1 .597.228l4.282 4.11a.78.78 0 0 1 .183.884.818.818 0 0 1-.312.363.87.87 0 0 1-.47.136Z" fill="#F9C7C5"/><path d="M89.77 26.782a.871.871 0 0 1-.596-.238l-3.685-3.536-3.683 3.535a.847.847 0 0 1-.597.238.876.876 0 0 1-.597-.238.783.783 0 0 1 0-1.146l4.28-4.108a.89.89 0 0 1 .598-.228.89.89 0 0 1 .597.228l4.282 4.11a.78.78 0 0 1 .183.884.818.818 0 0 1-.311.363.87.87 0 0 1-.47.136Z" fill="#F9C7C5"/><path d="M98.334 26.782a.871.871 0 0 1-.597-.238l-3.684-3.536-3.684 3.535a.848.848 0 0 1-.597.238.876.876 0 0 1-.597-.238.783.783 0 0 1 0-1.146l4.28-4.108a.89.89 0 0 1 .598-.228.89.89 0 0 1 .597.228l4.282 4.11a.78.78 0 0 1 .183.884.818.818 0 0 1-.311.363.87.87 0 0 1-.47.136Z" fill="#F9C7C5"/><path d="M106.897 26.782a.873.873 0 0 1-.598-.238l-3.683-3.536-3.685 3.535a.848.848 0 0 1-.597.238.876.876 0 0 1-.597-.238.783.783 0 0 1 0-1.146l4.282-4.108a.865.865 0 0 1 .597-.237.86.86 0 0 1 .596.237l4.282 4.11a.796.796 0 0 1 .231.414.777.777 0 0 1-.048.469.812.812 0 0 1-.311.363.868.868 0 0 1-.469.137Z" fill="#F9C7C5"/><path d="M115.458 26.782a.87.87 0 0 1-.596-.238l-3.684-3.536-3.684 3.535a.86.86 0 0 1-.598.238.877.877 0 0 1-.597-.238.79.79 0 0 1 0-1.146l4.282-4.108a.858.858 0 0 1 .597-.237.873.873 0 0 1 .597.237l4.282 4.11a.778.778 0 0 1 .183.884.813.813 0 0 1-.312.363.868.868 0 0 1-.47.136Z" fill="#F9C7C5"/><path d="M124.022 26.782a.842.842 0 0 1-.596-.238l-3.685-3.536-3.683 3.535a.862.862 0 0 1-.597.238.862.862 0 0 1-.597-.238.792.792 0 0 1-.248-.573c0-.215.089-.42.248-.573l4.281-4.108a.862.862 0 0 1 .596-.237c.224 0 .439.085.597.237l4.282 4.11a.798.798 0 0 1 .232.414.777.777 0 0 1-.048.469.82.82 0 0 1-.312.364.868.868 0 0 1-.47.136Z" fill="#F9C7C5"/></svg>