<?xml version="1.0" standalone="no"?>
<!DOCTYPE svg PUBLIC "-//W3C//DTD SVG 20010904//EN"
 "http://www.w3.org/TR/2001/REC-SVG-20010904/DTD/svg10.dtd">
<svg version="1.0" xmlns="http://www.w3.org/2000/svg"
 width="240.000000pt" height="240.000000pt" viewBox="0 0 240.000000 240.000000"
 preserveAspectRatio="xMidYMid meet">
<metadata>
Created by potrace 1.14, written by Peter Selinger 2001-2017
</metadata>
<g transform="translate(0.000000,240.000000) scale(0.100000,-0.100000)"
fill="#000000" stroke="none">
<path d="M1202 1848 c-9 -9 -12 -123 -12 -449 0 -384 2 -439 16 -453 8 -9 19
-16 23 -16 29 0 31 30 31 471 0 398 -2 448 -16 453 -22 8 -28 8 -42 -6z"/>
<path d="M1895 1595 c-87 -42 -178 -83 -230 -105 -140 -61 -159 -75 -138 -108
12 -21 10 -20 218 -113 201 -90 225 -98 244 -75 21 26 3 56 -47 78 -26 11 -67
30 -92 41 -25 11 -73 33 -107 48 -35 16 -63 32 -63 36 0 9 16 17 180 90 143
63 161 81 122 116 -23 21 -26 21 -87 -8z"/>
<path d="M467 1282 c-22 -25 -21 -40 8 -124 123 -352 461 -612 827 -635 106
-7 128 1 128 42 0 34 -16 41 -129 54 -121 15 -209 40 -305 88 -213 107 -376
301 -443 525 -19 64 -55 85 -86 50z"/>
</g>
</svg>
