<svg width="27" height="26" fill="none" xmlns="http://www.w3.org/2000/svg"><path d="M13.312 0C5.961 0 0 5.96 0 13.312c0 5.882 3.814 10.872 9.104 12.632.665.123.91-.289.91-.64 0-.318-.013-1.366-.019-2.479-3.703.805-4.485-1.57-4.485-1.57-.605-1.54-1.478-1.948-1.478-1.948-1.208-.827.091-.81.091-.81 1.337.094 2.04 1.372 2.04 1.372 1.188 2.035 3.115 1.447 3.875 1.107.12-.86.464-1.448.845-1.78-2.957-.337-6.065-1.478-6.065-6.58 0-1.452.52-2.64 1.371-3.572-.138-.336-.593-1.69.13-3.523 0 0 1.117-.358 3.661 1.364 1.062-.295 2.2-.443 3.332-.448a12.79 12.79 0 0 1 3.335.448c2.54-1.722 3.657-1.364 3.657-1.364.725 1.833.269 3.187.13 3.523.854.932 1.37 2.12 1.37 3.573 0 5.113-3.113 6.239-6.078 6.568.478.413.903 1.223.903 2.465 0 1.782-.015 3.215-.015 3.654 0 .354.24.769.914.638 5.287-1.762 9.096-6.75 9.096-12.63C26.624 5.96 20.664 0 13.312 0ZM4.986 18.963c-.03.066-.134.086-.228.04-.097-.042-.151-.133-.12-.199.029-.068.133-.087.23-.041.096.043.151.134.118.2Zm.655.585c-.064.059-.188.031-.272-.062-.087-.093-.104-.217-.04-.277.066-.058.187-.03.274.062.087.094.104.217.038.277Zm.449.747c-.082.057-.215.004-.298-.115-.081-.118-.081-.26.002-.317.083-.057.214-.006.298.112.081.12.081.262-.002.32Zm.76.866c-.073.08-.229.059-.343-.051-.116-.107-.148-.26-.075-.34.074-.08.23-.058.345.05.115.108.15.261.073.341Zm.982.292c-.033.105-.182.152-.333.108-.15-.046-.25-.168-.219-.273.031-.105.182-.155.334-.107.15.045.249.166.218.272Zm1.117.124c.004.11-.124.201-.282.203-.16.004-.288-.085-.29-.193 0-.111.125-.201.284-.204.158-.003.288.085.288.194Zm1.098-.042c.018.107-.091.217-.249.247-.154.028-.297-.038-.317-.145-.019-.11.093-.22.247-.248.158-.027.299.037.319.146Z" fill="#6ABECD"/></svg>