<svg width="20" height="20" fill="none" xmlns="http://www.w3.org/2000/svg"><path d="M16.868 16.866h-2.89V12.34c0-1.079-.019-2.468-1.502-2.468-1.505 0-1.736 1.176-1.736 2.388v4.606H7.85V7.559h2.775v1.273h.039A3.046 3.046 0 0 1 13.4 7.329c2.929 0 3.47 1.925 3.47 4.433l-.002 5.102v.002ZM4.591 6.286a1.685 1.685 0 0 1-1.677-1.674c0-.92.757-1.677 1.677-1.677s1.676.757 1.677 1.677c0 .92-.757 1.675-1.677 1.675Zm1.445 10.58H3.143V7.559h2.893v9.307ZM18.306.25H1.691A1.43 1.43 0 0 0 .252 1.657v16.686a1.43 1.43 0 0 0 1.439 1.407h16.617a1.433 1.433 0 0 0 1.444-1.407V1.656A1.43 1.43 0 0 0 18.308.252L18.306.25Z" fill="#6ABECD"/></svg>